<svg xmlns="http://www.w3.org/2000/svg" viewBox="0 0 320 240" role="img" aria-labelledby="title desc">
  <title id="title">Placeholder illustration of daemon Noxi</title>
  <desc id="desc">A stylised neon silhouette representing the daemon character Noxi.</desc>
  <defs>
    <linearGradient id="noxiGlow" x1="0%" y1="0%" x2="100%" y2="100%">
      <stop offset="0%" stop-color="#ff5ed9" stop-opacity="0.9" />
      <stop offset="100%" stop-color="#7b2bff" stop-opacity="0.9" />
    </linearGradient>
    <radialGradient id="noxiAura" cx="50%" cy="45%" r="65%">
      <stop offset="0%" stop-color="#fbe9ff" stop-opacity="0.75" />
      <stop offset="70%" stop-color="#8734ff" stop-opacity="0.35" />
      <stop offset="100%" stop-color="#050014" stop-opacity="0" />
    </radialGradient>
  </defs>
  <rect width="320" height="240" fill="#050014" rx="24" />
  <g fill="none" stroke="url(#noxiGlow)" stroke-width="8" stroke-linecap="round">
    <path d="M96 84c18-28 54-44 84-24 24 16 42 52 33 86-11 44-58 76-106 52" />
    <path d="M112 78c-4-24 24-50 52-42 30 9 54 44 54 80" opacity="0.65" />
  </g>
  <g fill="none" stroke="#fef2ff" stroke-width="6" stroke-linejoin="round">
    <path d="M86 170c18 12 46 14 70-4 30-22 32-62 18-86-10-18-40-18-54 2-16 22-12 48 6 60 18 12 34 4 46-10" />
  </g>
  <circle cx="160" cy="120" r="112" fill="url(#noxiAura)" />
  <circle cx="122" cy="112" r="12" fill="#fff5ff" opacity="0.85" />
  <circle cx="196" cy="112" r="10" fill="#f5d1ff" opacity="0.75" />
</svg>
