<svg xmlns="http://www.w3.org/2000/svg" width="960" height="1200" viewBox="0 0 960 1200" role="img" aria-label="Agnes leaning forward at a holo terminal">
  <defs>
    <linearGradient id="bg" x1="0%" y1="0%" x2="100%" y2="100%">
      <stop offset="0%" stop-color="#0a0f2a"/>
      <stop offset="55%" stop-color="#0f1637"/>
      <stop offset="100%" stop-color="#15204a"/>
    </linearGradient>
    <linearGradient id="cables" x1="0%" y1="0%" x2="100%" y2="100%">
      <stop offset="0%" stop-color="#7ef1ff"/>
      <stop offset="100%" stop-color="#a7a0ff"/>
    </linearGradient>
    <radialGradient id="scan" cx="50%" cy="10%" r="80%">
      <stop offset="0%" stop-color="#7af3ff" stop-opacity="0.65"/>
      <stop offset="40%" stop-color="#44d9ff" stop-opacity="0.22"/>
      <stop offset="100%" stop-color="#1aaaff" stop-opacity="0"/>
    </radialGradient>
  </defs>
  <rect width="960" height="1200" fill="url(#bg)"/>
  <rect width="960" height="1200" fill="url(#scan)"/>
  <g stroke="#1ad8ff" stroke-width="10" stroke-linecap="round" opacity="0.25">
    <path d="M120 330h720"/>
    <path d="M120 520h720"/>
    <path d="M120 710h720"/>
  </g>
  <g fill="none" stroke="url(#cables)" stroke-width="12" opacity="0.75">
    <path d="M300 660c120-60 220-62 320 14"/>
    <path d="M280 720c140-32 260-12 360 80" stroke-linecap="round"/>
  </g>
  <g transform="translate(320 280)">
    <rect x="170" y="140" width="260" height="180" rx="22" fill="#0c1d36" stroke="#7ef1ff" stroke-width="8" opacity="0.8"/>
    <rect x="182" y="152" width="236" height="156" rx="18" fill="#0f2a48" stroke="#c7e7ff" stroke-width="6"/>
    <g fill="#7ef1ff" opacity="0.85">
      <rect x="204" y="186" width="54" height="12" rx="6"/>
      <rect x="270" y="186" width="126" height="12" rx="6"/>
      <rect x="204" y="214" width="192" height="10" rx="5"/>
      <rect x="204" y="242" width="162" height="10" rx="5"/>
    </g>
    <circle cx="122" cy="162" r="74" fill="#111b33" stroke="#a7a0ff" stroke-width="10"/>
    <circle cx="118" cy="152" r="38" fill="#121f42" stroke="#90e0ff" stroke-width="6"/>
    <path d="M90 178c18-12 42-12 60 2" stroke="#7ef1ff" stroke-width="10" stroke-linecap="round"/>
    <g fill="#f5fbff" opacity="0.92">
      <circle cx="96" cy="152" r="10"/>
      <circle cx="132" cy="156" r="10"/>
    </g>
  </g>
  <g transform="translate(260 470)">
    <path d="M100 40c28-54 192-42 234 6 32 36 24 96 12 140-8 30-42 70-74 74-46 6-94-12-126-36-26-20-58-62-62-92-4-30 0-66 16-92z" fill="#7ef1ff" opacity="0.22"/>
    <path d="M130 32c36-38 186-32 228 16 28 34 28 106 20 152-4 24-36 70-68 72-44 2-70-6-116-30-28-14-72-48-84-78-16-40-4-96 20-132z" fill="#101d36" stroke="#9ff0ff" stroke-width="10"/>
    <path d="M152 20c18-32 52-48 88-48 32 2 68 26 82 70" fill="none" stroke="#7ef1ff" stroke-width="10" stroke-linecap="round"/>
  </g>
  <g transform="translate(230 640)">
    <path d="M86 10c-28 52-28 148 6 170 32 24 60-8 78-48l48-116" fill="#0f182f" stroke="#88f4ff" stroke-width="10"/>
    <path d="M292 24c24 56 26 152-10 174-32 22-60-6-78-44l-46-94" fill="#141f3f" stroke="#c6c6ff" stroke-width="10"/>
    <path d="M168 182 134 264" stroke="#7ef1ff" stroke-width="12" stroke-linecap="round"/>
    <path d="M230 190 260 272" stroke="#b8b1ff" stroke-width="12" stroke-linecap="round"/>
  </g>
  <g stroke="#7ef1ff" stroke-width="8" stroke-linecap="round" opacity="0.7">
    <path d="M630 470c48 12 92 56 88 108"/>
    <path d="M650 650c38 10 60 44 62 78"/>
    <path d="M430 350c-22 32-30 70-18 104"/>
  </g>
</svg>
