<svg xmlns="http://www.w3.org/2000/svg" viewBox="0 0 1200 900" role="img" aria-labelledby="title desc">
  <title id="title">Agnes hacking in a neon workspace</title>
  <desc id="desc">3D neon portrait of Agnes leaning toward a holographic console.</desc>
  <defs>
    <linearGradient id="bg" x1="0" y1="0" x2="1" y2="1">
      <stop offset="0%" stop-color="#0F0A1C" />
      <stop offset="60%" stop-color="#1E1237" />
      <stop offset="100%" stop-color="#120B22" />
    </linearGradient>
    <linearGradient id="panel" x1="0" y1="0" x2="1" y2="0">
      <stop offset="0%" stop-color="#4DE4FF" stop-opacity="0.2" />
      <stop offset="100%" stop-color="#9A7BFF" stop-opacity="0.08" />
    </linearGradient>
    <linearGradient id="suit" x1="0" y1="0" x2="0" y2="1">
      <stop offset="0%" stop-color="#F7F1FF" />
      <stop offset="100%" stop-color="#C9C0FF" />
    </linearGradient>
    <radialGradient id="glow" cx="0.5" cy="0.5" r="0.7">
      <stop offset="0%" stop-color="#8CF0FF" stop-opacity="0.42" />
      <stop offset="100%" stop-color="#8CF0FF" stop-opacity="0" />
    </radialGradient>
    <linearGradient id="accent" x1="0" y1="0" x2="1" y2="1">
      <stop offset="0%" stop-color="#7EF0FF" />
      <stop offset="100%" stop-color="#7B6BFF" />
    </linearGradient>
  </defs>
  <rect width="1200" height="900" fill="url(#bg)" />
  <ellipse cx="360" cy="520" rx="460" ry="340" fill="url(#glow)" opacity="0.8" />
  <rect x="120" y="260" width="560" height="420" rx="48" fill="#0C0F23" stroke="#5C5E9A" stroke-opacity="0.3" />
  <rect x="120" y="260" width="560" height="420" rx="48" fill="url(#panel)" opacity="0.6" />
  <rect x="180" y="320" width="420" height="14" rx="7" fill="#8CF0FF" opacity="0.7" />
  <rect x="180" y="352" width="360" height="10" rx="5" fill="#8CF0FF" opacity="0.32" />
  <rect x="180" y="382" width="400" height="10" rx="5" fill="#9A7BFF" opacity="0.28" />
  <rect x="180" y="426" width="310" height="12" rx="6" fill="#8CF0FF" opacity="0.46" />
  <rect x="180" y="456" width="360" height="12" rx="6" fill="#6F6BFF" opacity="0.4" />
  <rect x="180" y="492" width="420" height="12" rx="6" fill="#8CF0FF" opacity="0.36" />
  <g transform="translate(650 220)">
    <ellipse cx="120" cy="118" rx="118" ry="122" fill="url(#suit)" />
    <ellipse cx="124" cy="108" rx="106" ry="98" fill="#FCFBFF" opacity="0.9" />
    <path d="M82 88c22-28 72-30 96-2 12 14 16 36 10 58-8 28-36 44-70 46-34 0-66-12-76-42-10-28 6-58 40-60Z" fill="#0E1026" />
    <path d="M142 92c16 6 28 26 24 46-4 20-18 34-34 34-22 0-38-20-38-42 0-18 14-42 48-38Z" fill="#93F3FF" opacity="0.8" />
    <circle cx="112" cy="120" r="9" fill="#7EF0FF" />
    <circle cx="154" cy="114" r="9" fill="#7EF0FF" />
    <rect x="118" y="156" width="42" height="10" rx="5" fill="#8CF0FF" opacity="0.8" />
  </g>
  <g transform="translate(720 400)">
    <path d="M66 8c34-12 84 10 110 50 20 32 24 76 0 104-22 28-62 36-100 32-44-4-90-26-104-66-12-34-8-80 22-106 24-22 72-8 72-14Z" fill="url(#suit)" />
    <path d="M92 66c40 0 76 32 76 74s-32 74-74 74-82-26-86-70c-6-46 34-92 84-78Z" fill="#0C0F23" opacity="0.92" />
    <path d="M70 82c18-12 48-10 64 10 16 20 20 50 6 72-18 30-52 40-78 30-26-10-46-44-32-76 8-18 20-34 40-36Z" fill="url(#accent)" opacity="0.6" />
  </g>
  <g transform="translate(600 560)">
    <path d="M40 16c-10 18-10 48 6 62 16 16 50 16 74 8 28-8 52-24 76-20s44 28 56 26c10-2 18-18 14-34-6-32-50-50-86-54-34-6-74 2-100-6-22-6-40-2-40 18Z" fill="#CFC8FF" />
    <path d="M74 26c-4 10 10 18 24 22 22 8 44 0 62-4 16-4 32 6 46 6 10 0 16-10 10-20-8-12-36-20-62-16-22 4-56 10-80 12Z" fill="#8CF0FF" opacity="0.4" />
  </g>
  <g transform="translate(890 360)">
    <rect x="0" y="0" width="210" height="260" rx="32" fill="#0C0F20" stroke="#6F6BFF" stroke-opacity="0.3" />
    <rect x="22" y="36" width="140" height="12" rx="6" fill="#6F6BFF" opacity="0.6" />
    <rect x="22" y="74" width="120" height="10" rx="5" fill="#8CF0FF" opacity="0.6" />
    <rect x="22" y="110" width="160" height="10" rx="5" fill="#8CF0FF" opacity="0.4" />
    <rect x="22" y="148" width="110" height="10" rx="5" fill="#8CF0FF" opacity="0.32" />
    <rect x="22" y="186" width="170" height="10" rx="5" fill="#6F6BFF" opacity="0.4" />
    <rect x="22" y="220" width="120" height="10" rx="5" fill="#8CF0FF" opacity="0.52" />
  </g>
  <g transform="translate(520 286)">
    <rect x="0" y="0" width="110" height="36" rx="18" fill="#7EF0FF" opacity="0.32" />
    <rect x="140" y="14" width="90" height="20" rx="10" fill="#8CF0FF" opacity="0.28" />
    <rect x="260" y="4" width="60" height="28" rx="14" fill="#6F6BFF" opacity="0.32" />
  </g>
</svg>
