<svg xmlns="http://www.w3.org/2000/svg" viewBox="0 0 1200 900" role="img" aria-labelledby="title desc">
  <title id="title">Agnes standing in neutral pose</title>
  <desc id="desc">A calm 3D portrait of Agnes framed by neon auroras.</desc>
  <defs>
    <linearGradient id="bg" x1="0" y1="0" x2="1" y2="1">
      <stop offset="0%" stop-color="#0D0A1D" />
      <stop offset="60%" stop-color="#1B1334" />
      <stop offset="100%" stop-color="#0C0A16" />
    </linearGradient>
    <radialGradient id="halo" cx="0.5" cy="0.4" r="0.7">
      <stop offset="0%" stop-color="#8CF0FF" stop-opacity="0.38" />
      <stop offset="100%" stop-color="#8CF0FF" stop-opacity="0" />
    </radialGradient>
    <linearGradient id="suit" x1="0" y1="0" x2="0" y2="1">
      <stop offset="0%" stop-color="#F8F4FF" />
      <stop offset="100%" stop-color="#CDC4FF" />
    </linearGradient>
    <linearGradient id="accent" x1="0" y1="0" x2="1" y2="1">
      <stop offset="0%" stop-color="#7EF0FF" />
      <stop offset="100%" stop-color="#7B6BFF" />
    </linearGradient>
  </defs>
  <rect width="1200" height="900" fill="url(#bg)" />
  <ellipse cx="620" cy="420" rx="520" ry="360" fill="url(#halo)" opacity="0.9" />
  <ellipse cx="620" cy="740" rx="260" ry="60" fill="#8CF0FF" opacity="0.18" />
  <ellipse cx="620" cy="750" rx="180" ry="42" fill="#6F6BFF" opacity="0.18" />
  <g transform="translate(520 180)">
    <ellipse cx="120" cy="130" rx="110" ry="118" fill="url(#suit)" />
    <ellipse cx="122" cy="118" rx="98" ry="94" fill="#FBFAFF" opacity="0.92" />
    <path d="M86 90c18-30 66-34 90-10 14 14 20 40 14 62-8 28-34 46-68 48-34 0-64-16-72-46-8-26 8-52 36-54Z" fill="#0E1026" />
    <path d="M138 96c16 4 28 22 24 42-6 22-22 36-38 36-20 0-38-18-38-40 0-20 18-44 52-38Z" fill="#8CF0FF" opacity="0.78" />
    <circle cx="110" cy="122" r="8" fill="#7EF0FF" />
    <circle cx="150" cy="118" r="8" fill="#7EF0FF" />
    <path d="M108 158c18 10 42 10 60 0" stroke="#8CF0FF" stroke-width="8" stroke-linecap="round" opacity="0.85" />
  </g>
  <g transform="translate(520 360)">
    <path d="M114 8c38-8 86 12 118 50 28 34 40 80 26 118-12 32-40 58-80 66-40 8-86-4-122-28-42-28-66-80-48-128 14-36 50-80 106-78Z" fill="url(#suit)" />
    <path d="M136 70c42 0 84 32 92 78 8 48-26 92-74 100-58 10-122-26-126-90-4-52 40-94 88-88h20Z" fill="#0F1124" opacity="0.9" />
    <path d="M110 86c22-14 54-10 72 10 22 24 24 60 6 86-22 36-66 50-98 36-32-14-50-56-32-92 10-22 26-42 52-40Z" fill="url(#accent)" opacity="0.58" />
  </g>
  <g transform="translate(412 398)">
    <path d="M70 24c-18 30-28 82-20 114 8 32 38 48 64 44 24-2 42-26 44-52 4-32-14-82-26-114-12-34-44-36-62-8Z" fill="#F8F4FF" />
    <path d="M96 72c4 12 0 30-10 42-6 6-16 6-20-4-4-10 2-22 10-32 8-10 16-10 20-6Z" fill="#8CF0FF" opacity="0.72" />
  </g>
  <g transform="translate(736 402)">
    <path d="M64 18c14 32 24 84 18 116-6 32-28 50-52 50-22 0-42-18-48-46-6-26 0-64 10-98 12-38 54-56 72-22Z" fill="#F8F4FF" />
    <path d="M52 78c6 10 4 26-4 36-6 8-14 8-18 0-6-8-2-20 4-30 4-8 14-10 18-6Z" fill="#8CF0FF" opacity="0.72" />
  </g>
  <g transform="translate(480 250)">
    <rect x="0" y="0" width="120" height="22" rx="11" fill="#8CF0FF" opacity="0.3" />
    <rect x="140" y="10" width="100" height="18" rx="9" fill="#6F6BFF" opacity="0.3" />
    <rect x="280" y="4" width="64" height="22" rx="11" fill="#7EF0FF" opacity="0.26" />
  </g>
</svg>
