<svg xmlns="http://www.w3.org/2000/svg" viewBox="0 0 720 880" fill="none">
  <defs>
    <linearGradient id="agnesAura" x1="180" x2="520" y1="120" y2="760" gradientUnits="userSpaceOnUse">
      <stop stop-color="#8CF1FF" stop-opacity="0.8" />
      <stop offset="0.5" stop-color="#7F5BFF" stop-opacity="0.65" />
      <stop offset="1" stop-color="#0B1024" stop-opacity="0.05" />
    </linearGradient>
    <filter id="bloom" x="-40%" y="-40%" width="180%" height="180%" color-interpolation-filters="sRGB">
      <feGaussianBlur stdDeviation="28" result="blur" />
      <feComposite in="blur" in2="blur" operator="lighter" />
    </filter>
    <linearGradient id="scan" x1="0" x2="0" y1="0" y2="1">
      <stop offset="0" stop-color="#C8F9FF" stop-opacity="0.2" />
      <stop offset="1" stop-color="#C8F9FF" stop-opacity="0" />
    </linearGradient>
    <pattern id="scanlines" width="100" height="8" patternUnits="userSpaceOnUse">
      <rect width="100" height="1.5" fill="url(#scan)" />
    </pattern>
  </defs>
  <rect width="720" height="880" fill="#050712" />
  <rect width="720" height="880" fill="url(#scanlines)" opacity="0.22" />
  <ellipse cx="360" cy="520" rx="210" ry="260" fill="url(#agnesAura)" filter="url(#bloom)" />
  <ellipse cx="360" cy="650" rx="190" ry="54" fill="#0B1024" opacity="0.6" />
  <g filter="url(#bloom)" opacity="0.35">
    <path d="M180 520C190 470 240 420 360 420C490 420 540 490 540 520C540 560 500 610 410 620" stroke="#9DF4FF" stroke-width="38" stroke-linecap="round" />
  </g>
  <g transform="translate(180 220)">
    <path d="M200 120c0 52-26 94-60 94s-60-42-60-94 26-94 60-94 60 42 60 94Z" fill="#0B1024" stroke="#9DF4FF" stroke-width="8" />
    <path d="M138 188c12 12 28 18 42 18 28 0 42-24 42-54 0-38-20-72-48-72-26 0-48 20-48 52 0 12 2 42 12 56Z" fill="#8CF1FF" opacity="0.85" />
    <circle cx="176" cy="116" r="10" fill="#0B1024" />
    <circle cx="144" cy="124" r="10" fill="#0B1024" />
    <path d="M134 160c6 10 18 16 34 16" stroke="#E1E8FF" stroke-width="6" stroke-linecap="round" />
  </g>
  <g transform="translate(120 340)">
    <path d="M200 84c0 38-32 116-72 116s-72-78-72-116 32-56 72-56 72 18 72 56Z" fill="#0B1A2E" stroke="#7F5BFF" stroke-width="8" />
    <path d="M92 120c16 34 40 58 72 58 24 0 42-10 54-26" stroke="#8CF1FF" stroke-width="10" stroke-linecap="round" />
  </g>
  <g transform="translate(240 420)">
    <path d="M90 0c-20 34-38 74-38 112 0 22 6 34 18 48" stroke="#9DF4FF" stroke-width="14" stroke-linecap="round" />
    <path d="M118 0c24 36 44 78 44 116 0 22-8 36-18 46" stroke="#7F5BFF" stroke-width="14" stroke-linecap="round" />
  </g>
  <g transform="translate(130 520)">
    <path d="M120 0c-18 48-38 90-38 134 0 24 8 52 20 72" stroke="#7F5BFF" stroke-width="14" stroke-linecap="round" />
    <path d="M200 0c22 46 42 86 42 132 0 32-10 62-22 86" stroke="#8CF1FF" stroke-width="14" stroke-linecap="round" />
  </g>
  <g transform="translate(210 260)">
    <rect x="-16" y="-28" width="64" height="18" rx="8" fill="#101a2b" stroke="#9DF4FF" stroke-width="4" />
    <rect x="32" y="-12" width="84" height="18" rx="9" fill="#101a2b" stroke="#7F5BFF" stroke-width="4" />
    <rect x="-12" y="12" width="52" height="16" rx="7" fill="#101a2b" stroke="#9DF4FF" stroke-width="3" />
  </g>
</svg>
