<svg xmlns="http://www.w3.org/2000/svg" width="960" height="1200" viewBox="0 0 960 1200" role="img" aria-label="Noxi focused on hacking console with neon bloom">
  <defs>
    <linearGradient id="bg" x1="0%" y1="0%" x2="100%" y2="100%">
      <stop offset="0%" stop-color="#0c0d22"/>
      <stop offset="50%" stop-color="#151536"/>
      <stop offset="100%" stop-color="#1c1d48"/>
    </linearGradient>
    <radialGradient id="pulse" cx="48%" cy="16%" r="78%">
      <stop offset="0%" stop-color="#ffc9ff" stop-opacity="0.7"/>
      <stop offset="40%" stop-color="#b57aff" stop-opacity="0.3"/>
      <stop offset="100%" stop-color="#6a4bff" stop-opacity="0"/>
    </radialGradient>
    <linearGradient id="screen" x1="0%" y1="0%" x2="100%" y2="0%">
      <stop offset="0%" stop-color="#b0f4ff"/>
      <stop offset="100%" stop-color="#7ea0ff"/>
    </linearGradient>
  </defs>
  <rect width="960" height="1200" fill="url(#bg)"/>
  <rect width="960" height="1200" fill="url(#pulse)"/>
  <g stroke="#c2b5ff" stroke-width="10" stroke-linecap="round" opacity="0.26">
    <path d="M140 340h680"/>
    <path d="M140 520h680"/>
    <path d="M140 700h680"/>
  </g>
  <g transform="translate(280 290)">
    <rect x="156" y="170" width="280" height="190" rx="22" fill="#0c1c32" stroke="#ffc9ff" stroke-width="8" opacity="0.82"/>
    <rect x="170" y="184" width="252" height="162" rx="18" fill="#112744" stroke="#b0f4ff" stroke-width="6"/>
    <g fill="url(#screen)" opacity="0.9">
      <rect x="190" y="210" width="76" height="10" rx="5"/>
      <rect x="276" y="210" width="118" height="10" rx="5"/>
      <rect x="190" y="238" width="188" height="12" rx="6"/>
      <rect x="190" y="268" width="156" height="12" rx="6"/>
      <rect x="190" y="298" width="134" height="12" rx="6"/>
    </g>
    <circle cx="116" cy="168" r="80" fill="#14162e" stroke="#f4d9ff" stroke-width="10"/>
    <circle cx="110" cy="158" r="40" fill="#191c3b" stroke="#b8f0ff" stroke-width="6"/>
    <path d="M82 182c16-12 40-10 60 4" stroke="#ffc9ff" stroke-width="10" stroke-linecap="round"/>
    <g fill="#fff6ff" opacity="0.92">
      <circle cx="92" cy="158" r="10"/>
      <circle cx="128" cy="162" r="10"/>
    </g>
  </g>
  <g transform="translate(250 480)">
    <path d="M90 26c32-62 206-56 252 4 32 42 24 110 10 160-10 34-48 86-84 92-50 8-108-16-144-44-28-22-68-70-70-102-2-36 12-82 36-110z" fill="#191934" stroke="#f3d9ff" stroke-width="10"/>
    <path d="M124 12c26-40 70-58 114-56 46 2 100 30 126 94" fill="none" stroke="#ffc9ff" stroke-width="10" stroke-linecap="round"/>
    <path d="M182 188c24 10 52 14 78 12 18-2 44-12 62-22" fill="none" stroke="#9be0ff" stroke-width="8" stroke-linecap="round"/>
  </g>
  <g transform="translate(228 648)">
    <path d="M86 0c-26 66-26 180 10 204 32 22 58-8 76-46l40-96" fill="#15152e" stroke="#f3d9ff" stroke-width="10"/>
    <path d="M298 0c26 66 26 180-10 204-32 22-58-8-76-46l-40-96" fill="#1c1c44" stroke="#a6e2ff" stroke-width="10"/>
    <path d="M160 206 128 296" stroke="#ffc9ff" stroke-width="12" stroke-linecap="round"/>
    <path d="M232 208 260 296" stroke="#c2b5ff" stroke-width="12" stroke-linecap="round"/>
  </g>
  <g stroke="#ffc9ff" stroke-width="8" stroke-linecap="round" opacity="0.72">
    <path d="M616 470c40 18 76 64 70 112"/>
    <path d="M640 650c34 12 56 46 58 82"/>
    <path d="M430 372c-20 32-28 74-16 108"/>
  </g>
</svg>
