<svg xmlns="http://www.w3.org/2000/svg" viewBox="0 0 720 880" fill="none">
  <defs>
    <linearGradient id="noxiGlow" x1="140" y1="140" x2="620" y2="780" gradientUnits="userSpaceOnUse">
      <stop stop-color="#FF8CF5" stop-opacity="0.8" />
      <stop offset="0.55" stop-color="#5BE5FF" stop-opacity="0.68" />
      <stop offset="1" stop-color="#0B1024" stop-opacity="0.08" />
    </linearGradient>
    <filter id="noxiBloom" x="-30%" y="-30%" width="170%" height="170%">
      <feGaussianBlur stdDeviation="26" result="blur" />
      <feComposite in="blur" in2="blur" operator="lighter" />
    </filter>
    <linearGradient id="scan" x1="0" x2="0" y1="0" y2="1">
      <stop offset="0" stop-color="#F7C8FF" stop-opacity="0.24" />
      <stop offset="1" stop-color="#F7C8FF" stop-opacity="0" />
    </linearGradient>
    <pattern id="scanlines" width="100" height="8" patternUnits="userSpaceOnUse">
      <rect width="100" height="1.5" fill="url(#scan)" />
    </pattern>
  </defs>
  <rect width="720" height="880" fill="#080814" />
  <rect width="720" height="880" fill="url(#scanlines)" opacity="0.22" />
  <ellipse cx="420" cy="670" rx="210" ry="62" fill="#0B1024" opacity="0.62" />
  <ellipse cx="380" cy="460" rx="250" ry="300" fill="url(#noxiGlow)" filter="url(#noxiBloom)" />
  <g transform="translate(260 220)">
    <path d="M144 120c0 54-24 98-54 98s-54-44-54-98 24-98 54-98 54 44 54 98Z" fill="#0C0F22" stroke="#FFB2F8" stroke-width="8" />
    <path d="M92 192c12 12 26 18 38 18 26 0 38-24 38-56 0-38-18-74-44-74-24 0-44 22-44 56 0 12 2 40 12 56Z" fill="#FFD3FA" opacity="0.82" />
    <circle cx="122" cy="114" r="10" fill="#0B1024" />
    <circle cx="94" cy="126" r="10" fill="#0B1024" />
    <path d="M90 158c6 10 18 16 32 16" stroke="#F7ECFF" stroke-width="6" stroke-linecap="round" />
  </g>
  <g transform="translate(182 340)">
    <path d="M210 78c0 40-38 122-82 122s-82-82-82-122 36-58 82-58 82 18 82 58Z" fill="#10152D" stroke="#63E7FF" stroke-width="8" />
    <path d="M86 120c16 32 38 56 68 56 26 0 46-14 60-32" stroke="#FFB2F8" stroke-width="10" stroke-linecap="round" />
  </g>
  <g transform="translate(280 420)">
    <path d="M82 0c-18 34-34 78-34 118 0 22 8 38 16 50" stroke="#63E7FF" stroke-width="14" stroke-linecap="round" />
    <path d="M118 0c24 38 46 82 46 122 0 22-6 40-16 52" stroke="#FFB2F8" stroke-width="14" stroke-linecap="round" />
  </g>
  <g transform="translate(170 520)">
    <path d="M136 0c-18 52-40 94-40 140 0 28 10 56 22 80" stroke="#63E7FF" stroke-width="14" stroke-linecap="round" />
    <path d="M224 0c20 50 38 92 38 140 0 34-10 66-22 92" stroke="#FFB2F8" stroke-width="14" stroke-linecap="round" />
  </g>
  <g transform="translate(280 308)">
    <rect x="-12" y="-26" width="86" height="20" rx="10" fill="#121b30" stroke="#63E7FF" stroke-width="4" />
    <rect x="70" y="-10" width="104" height="22" rx="11" fill="#121b30" stroke="#FFB2F8" stroke-width="4" />
    <rect x="-6" y="16" width="68" height="18" rx="9" fill="#121b30" stroke="#9DF4FF" stroke-width="3" />
  </g>
  <g transform="translate(422 322)">
    <rect x="-16" y="-14" width="68" height="16" rx="8" fill="#101726" stroke="#63E7FF" stroke-width="3" />
    <rect x="48" y="-6" width="44" height="16" rx="8" fill="#101726" stroke="#FFB2F8" stroke-width="3" />
  </g>
</svg>
