<svg xmlns="http://www.w3.org/2000/svg" width="960" height="1200" viewBox="0 0 960 1200" role="img" aria-label="Noxi floating with twin drones">
  <defs>
    <linearGradient id="bg" x1="0%" y1="0%" x2="100%" y2="100%">
      <stop offset="0%" stop-color="#0d0f1f"/>
      <stop offset="50%" stop-color="#15142f"/>
      <stop offset="100%" stop-color="#1d1f45"/>
    </linearGradient>
    <radialGradient id="halo" cx="50%" cy="18%" r="78%">
      <stop offset="0%" stop-color="#ffd7ff" stop-opacity="0.72"/>
      <stop offset="40%" stop-color="#b792ff" stop-opacity="0.32"/>
      <stop offset="100%" stop-color="#7a5bff" stop-opacity="0"/>
    </radialGradient>
    <linearGradient id="suit" x1="0%" y1="0%" x2="100%" y2="100%">
      <stop offset="0%" stop-color="#fcb6ff"/>
      <stop offset="100%" stop-color="#7dd1ff"/>
    </linearGradient>
  </defs>
  <rect width="960" height="1200" fill="url(#bg)"/>
  <rect width="960" height="1200" fill="url(#halo)"/>
  <ellipse cx="480" cy="980" rx="200" ry="56" fill="#0b1028" opacity="0.6"/>
  <ellipse cx="480" cy="980" rx="176" ry="46" fill="#d4b8ff" opacity="0.14"/>
  <g transform="translate(360 240)">
    <circle cx="120" cy="138" r="88" fill="#121328" stroke="#d5c3ff" stroke-width="10"/>
    <circle cx="116" cy="128" r="42" fill="#1a1b38" stroke="#9be0ff" stroke-width="6"/>
    <path d="M86 152c16-10 44-10 64 4" stroke="#ffd7ff" stroke-width="10" stroke-linecap="round"/>
    <g fill="#fff6ff" opacity="0.92">
      <circle cx="98" cy="128" r="10"/>
      <circle cx="138" cy="132" r="10"/>
    </g>
  </g>
  <g transform="translate(310 370)">
    <path d="M56 178c16-96 78-176 184-176 114 0 174 94 160 206-6 54-32 104-66 120-50 22-126 26-174 8-62-22-120-108-104-158z" fill="#1a1a36" stroke="#e9d3ff" stroke-width="10"/>
    <path d="M122 78c26-42 74-62 126-60 50 4 106 34 132 104" fill="none" stroke="#fcb6ff" stroke-width="10" stroke-linecap="round"/>
    <path d="M94 170c28-20 72-32 114-32 42 0 88 12 118 34" fill="none" stroke="#8de7ff" stroke-width="8" stroke-linecap="round"/>
  </g>
  <g transform="translate(300 614)">
    <path d="M70 0c-18 62-18 166 16 188 30 22 54-6 72-42l44-94" fill="#16152f" stroke="#e4d7ff" stroke-width="10"/>
    <path d="M306 0c18 62 18 166-16 188-30 22-54-6-72-42l-44-94" fill="#1c1d42" stroke="#a8ddff" stroke-width="10"/>
  </g>
  <g transform="translate(340 820)">
    <path d="M74 0c-4 50-14 108 8 130 18 16 44-8 60-44l34-78" stroke="#e9d3ff" stroke-width="10" stroke-linecap="round" fill="none"/>
    <path d="M224 0c4 50 14 108-8 130-18 16-44-8-60-44l-34-78" stroke="#9be0ff" stroke-width="10" stroke-linecap="round" fill="none"/>
  </g>
  <g transform="translate(200 320)" opacity="0.86">
    <circle cx="46" cy="44" r="44" fill="#161533" stroke="#fcb6ff" stroke-width="8"/>
    <circle cx="46" cy="44" r="20" fill="#0f1228" stroke="#c6f0ff" stroke-width="6"/>
    <path d="M20 44h52" stroke="#fcb6ff" stroke-width="6" stroke-linecap="round"/>
  </g>
  <g transform="translate(700 300)" opacity="0.86">
    <circle cx="46" cy="44" r="44" fill="#161533" stroke="#b3a0ff" stroke-width="8"/>
    <circle cx="46" cy="44" r="20" fill="#0f1228" stroke="#9fe9ff" stroke-width="6"/>
    <path d="M20 44h52" stroke="#b3a0ff" stroke-width="6" stroke-linecap="round"/>
  </g>
  <g stroke="#fcb6ff" stroke-width="8" stroke-linecap="round" opacity="0.7">
    <path d="M234 500c-20 28-22 66-8 98"/>
    <path d="M708 514c16 28 18 66 4 98"/>
    <path d="M264 324c-2 40 14 74 38 94"/>
    <path d="M696 344c-22 34-30 76-16 112"/>
  </g>
</svg>
